<svg width="50" height="49" viewBox="0 0 50 49" fill="none" xmlns="http://www.w3.org/2000/svg">
<path d="M10.3442 30.9759C10.3442 33.8237 8.04122 36.1258 5.19146 36.1258C4.51463 36.1265 3.84431 35.9937 3.21888 35.7351C2.59345 35.4765 2.02519 35.0972 1.54661 34.6189C1.06803 34.1405 0.688547 33.5725 0.429868 32.9474C0.171189 32.3223 0.0383979 31.6524 0.0390958 30.9759C0.0390958 28.1281 2.34209 25.8264 5.19146 25.8264H10.3442V30.9759ZM12.9204 30.9759C12.9204 28.1281 15.2234 25.8264 18.0728 25.8264C20.9221 25.8264 23.2255 28.1281 23.2255 30.9759V43.8501C23.2255 46.6979 20.9225 49 18.0728 49C17.396 49.0006 16.7257 48.8678 16.1003 48.6092C15.4749 48.3506 14.9067 47.9713 14.4282 47.4929C13.9496 47.0146 13.5702 46.4466 13.3115 45.8215C13.0529 45.1965 12.9201 44.5265 12.9208 43.8501V30.9759H12.9204Z" fill="white" fill-opacity="0.2"/>
<path d="M18.0727 10.2994C17.3959 10.3 16.7256 10.1672 16.1002 9.90862C15.4748 9.65001 14.9066 9.27068 14.4281 8.79234C13.9496 8.314 13.5701 7.74604 13.3114 7.12096C13.0528 6.49588 12.92 5.82595 12.9207 5.14952C12.9203 2.30172 15.2233 0 18.0727 0C20.9221 0 23.2254 2.30172 23.2254 5.14952V10.2994H18.0727V10.2994ZM18.0727 12.9132C20.9221 12.9132 23.2254 15.2149 23.2254 18.0627C23.2254 20.9105 20.9224 23.2126 18.0727 23.2126H5.15237C4.47554 23.2133 3.80522 23.0805 3.17979 22.8219C2.55436 22.5633 1.98609 22.184 1.50752 21.7057C1.02894 21.2273 0.649454 20.6593 0.390775 20.0342C0.132096 19.4091 -0.000695083 18.7392 2.73605e-06 18.0627C2.73605e-06 15.2149 2.30299 12.9136 5.15237 12.9136H18.0731L18.0727 12.9132Z" fill="white" fill-opacity="0.2"/>
<path d="M38.7219 18.0627C38.7219 15.2149 41.0249 12.9132 43.8743 12.9132C46.7236 12.9132 49.027 15.2149 49.027 18.0627C49.027 20.9105 46.724 23.2126 43.8743 23.2126H38.7219V18.0627V18.0627ZM36.1453 18.0627C36.1453 20.9105 33.8427 23.2126 30.993 23.2126C30.3161 23.2133 29.6458 23.0805 29.0204 22.8219C28.395 22.5633 27.8267 22.184 27.3481 21.7057C26.8696 21.2273 26.4901 20.6593 26.2314 20.0342C25.9727 19.4091 25.8399 18.7392 25.8406 18.0627V5.14952C25.8406 2.30172 28.1436 0 30.993 0C33.8424 0 36.1457 2.30172 36.1457 5.14952V18.0631L36.1453 18.0627Z" fill="white" fill-opacity="0.2"/>
<path d="M30.993 38.7006C33.8424 38.7006 36.1457 41.0023 36.1457 43.8501C36.1457 46.6979 33.8427 49 30.993 49C30.3161 49.0007 29.6458 48.8679 29.0204 48.6093C28.395 48.3507 27.8267 47.9714 27.3481 47.4931C26.8696 47.0147 26.4901 46.4467 26.2314 45.8216C25.9727 45.1965 25.8399 44.5266 25.8406 43.8501V38.7006H30.993V38.7006ZM30.993 36.1254C30.3162 36.1261 29.6459 35.9933 29.0205 35.7348C28.3951 35.4762 27.8268 35.0969 27.3483 34.6186C26.8697 34.1403 26.4902 33.5724 26.2315 32.9473C25.9728 32.3223 25.84 31.6523 25.8406 30.9759C25.8406 28.1281 28.1436 25.8264 30.993 25.8264H43.9137C46.7631 25.8264 49.066 28.1281 49.066 30.9759C49.066 33.8237 46.7631 36.1258 43.9133 36.1258H30.993V36.1254Z" fill="white" fill-opacity="0.2"/>
</svg>
